<?xml version="1.0" encoding="UTF-8" standalone="no" ?>
<COLLADA xmlns="http://www.collada.org/2005/11/COLLADASchema" version="1.4.1">
  <asset>
    <contributor>
      <author>Assimp</author>
      <authoring_tool>Assimp Exporter</authoring_tool>
    </contributor>
    <created>2025-05-05T11:37:05</created>
    <modified>2025-05-05T11:37:05</modified>
    <unit name="meter" meter="1" />
    <up_axis>Y_UP</up_axis>
  </asset>
  <library_effects>
    <effect id="m0mat-fx" name="m0mat">
      <profile_COMMON>
        <technique sid="standard">
          <phong>
            <emission>
              <color sid="emission">0   0   0   4.5881314e-41</color>
            </emission>
            <ambient>
              <color sid="ambient">0.69999999   1   0.69999999   0</color>
            </ambient>
            <diffuse>
              <color sid="diffuse">0.69999999   1   0.69999999   0</color>
            </diffuse>
            <specular>
              <color sid="specular">0.25   0.25   0.25   -5.6022991e-29</color>
            </specular>
          </phong>
        </technique>
      </profile_COMMON>
    </effect>
  </library_effects>
  <library_materials>
    <material id="m0mat" name="m0mat">
      <instance_effect url="#m0mat-fx"/>
    </material>
  </library_materials>
  <library_geometries>
    <geometry id="meshId0" name="meshId0_name" >
      <mesh>
        <source id="meshId0-positions" name="meshId0-positions">
          <float_array id="meshId0-positions-array" count="216"> 0.014748645 -0.0085337935 0.068319358 0.0029654196 -0.010303658 0.12570269 0.013090244 -0.010019054 0.051441081 -0.00043433154 0.014789333 0.12472311 0.010590685 0.011990722 0.062716372 -0.0064888583 0.012521935 0.1231824 0.010590685 0.011990722 0.062716372 0.0039042251 -0.0078863222 0.080291592 -0.0064888583 0.012521935 0.1231824 -0.0060419729 -0.010337894 0.12143039 -0.003240231 -0.00043992806 0.13023755 -0.0064888583 0.012521935 0.1231824 -0.003240231 -0.00043992806 0.13023755 -0.00043433154 0.014789333 0.12472311 -0.0064888583 0.012521935 0.1231824 0.0027342204 0.012148862 0.12550917 -0.003240231 -0.00043992806 0.13023755 0.0029654196 -0.010303658 0.12570269 -0.00043433154 0.014789333 0.12472311 -0.003240231 -0.00043992806 0.13023755 0.0027342204 0.012148862 0.12550917 0.014075023 0.0095897624 0.07382609 -0.00043433154 0.014789333 0.12472311 0.0027342204 0.012148862 0.12550917 -0.00043433154 0.014789333 0.12472311 0.014075023 0.0095897624 0.07382609 0.010590685 0.011990722 0.062716372 0.014075023 0.0095897624 0.07382609 0.0027342204 0.012148862 0.12550917 0.0029654196 -0.010303658 0.12570269 0.014748645 -0.0085337935 0.068319358 0.014075023 0.0095897624 0.07382609 0.0029654196 -0.010303658 0.12570269 0.010590685 0.011990722 0.062716372 0.014075023 0.0095897624 0.07382609 0.013090244 -0.010019054 0.051441081 0.014075023 0.0095897624 0.07382609 0.014748645 -0.0085337935 0.068319358 0.013090244 -0.010019054 0.051441081 -0.0063421056 0.001536231 0.12125384 -0.0060419729 -0.010337894 0.12143039 -0.0064888583 0.012521935 0.1231824 0.0039042251 -0.0078863222 0.080291592 -0.0063421056 0.001536231 0.12125384 -0.0064888583 0.012521935 0.1231824 -0.0063421056 0.001536231 0.12125384 0.0039042251 -0.0078863222 0.080291592 -0.0060419729 -0.010337894 0.12143039 0.0099387215 -0.010083819 0.059983026 0.010590685 0.011990722 0.062716372 0.013090244 -0.010019054 0.051441081 0.0099387215 -0.010083819 0.059983026 0.0039042251 -0.0078863222 0.080291592 0.010590685 0.011990722 0.062716372 0.0039042251 -0.0078863222 0.080291592 0.0099387215 -0.010083819 0.059983026 -0.0060419729 -0.010337894 0.12143039 -0.003240231 -0.00043992806 0.13023755 -0.0037033523 -0.012028048 0.12397418 0.0029654196 -0.010303658 0.12570269 -0.0037033523 -0.012028048 0.12397418 -0.003240231 -0.00043992806 0.13023755 -0.0060419729 -0.010337894 0.12143039 0.0099387215 -0.010083819 0.059983026 -0.0037033523 -0.012028048 0.12397418 -0.0060419729 -0.010337894 0.12143039 0.0029654196 -0.010303658 0.12570269 -0.0037033523 -0.012028048 0.12397418 0.013090244 -0.010019054 0.051441081 -0.0037033523 -0.012028048 0.12397418 0.0099387215 -0.010083819 0.059983026 0.013090244 -0.010019054 0.051441081 </float_array>
          <technique_common>
            <accessor count="72" offset="0" source="#meshId0-positions-array" stride="3">
              <param name="X" type="float" />
              <param name="Y" type="float" />
              <param name="Z" type="float" />
            </accessor>
          </technique_common>
        </source>
        <vertices id="meshId0-vertices">
          <input semantic="POSITION" source="#meshId0-positions" />
        </vertices>
        <polylist count="24" material="defaultMaterial">
          <input offset="0" semantic="VERTEX" source="#meshId0-vertices" />
          <vcount>3 3 3 3 3 3 3 3 3 3 3 3 3 3 3 3 3 3 3 3 3 3 3 3 </vcount>
          <p>0 1 2 3 4 5 6 7 8 9 10 11 12 13 14 15 16 17 18 19 20 21 22 23 24 25 26 27 28 29 30 31 32 33 34 35 36 37 38 39 40 41 42 43 44 45 46 47 48 49 50 51 52 53 54 55 56 57 58 59 60 61 62 63 64 65 66 67 68 69 70 71 </p>
        </polylist>
      </mesh>
    </geometry>
  </library_geometries>
  <library_controllers>
  </library_controllers>
  <library_visual_scenes>
    <visual_scene id="Scene" name="Scene">
      <node id="Node_0x7fe6917b6bb0"  name="Node_0x7fe6917b6bb0" type="NODE">
        <matrix sid="matrix">1 0 0 0 0 1 0 0 0 0 1 0 0 0 0 1</matrix>
        <instance_geometry url="#meshId0">
          <bind_material>
            <technique_common>
              <instance_material symbol="defaultMaterial" target="#m0mat">
              </instance_material>
            </technique_common>
          </bind_material>
        </instance_geometry>
      </node>
    </visual_scene>
  </library_visual_scenes>
  <scene>
    <instance_visual_scene url="#Scene" />
  </scene>
</COLLADA>
