<?xml version="1.0" encoding="UTF-8" standalone="no" ?>
<COLLADA xmlns="http://www.collada.org/2005/11/COLLADASchema" version="1.4.1">
  <asset>
    <contributor>
      <author>Assimp</author>
      <authoring_tool>Assimp Exporter</authoring_tool>
    </contributor>
    <created>2025-05-05T11:37:05</created>
    <modified>2025-05-05T11:37:05</modified>
    <unit name="meter" meter="1" />
    <up_axis>Y_UP</up_axis>
  </asset>
  <library_effects>
    <effect id="m0mat-fx" name="m0mat">
      <profile_COMMON>
        <technique sid="standard">
          <phong>
            <emission>
              <color sid="emission">0   0   0   4.5881314e-41</color>
            </emission>
            <ambient>
              <color sid="ambient">0.69999999   1   0.69999999   0</color>
            </ambient>
            <diffuse>
              <color sid="diffuse">0.69999999   1   0.69999999   0</color>
            </diffuse>
            <specular>
              <color sid="specular">0.25   0.25   0.25   -4.361485e-29</color>
            </specular>
          </phong>
        </technique>
      </profile_COMMON>
    </effect>
  </library_effects>
  <library_materials>
    <material id="m0mat" name="m0mat">
      <instance_effect url="#m0mat-fx"/>
    </material>
  </library_materials>
  <library_geometries>
    <geometry id="meshId0" name="meshId0_name" >
      <mesh>
        <source id="meshId0-positions" name="meshId0-positions">
          <float_array id="meshId0-positions-array" count="324"> -0.0083727278 0.036903474 -0.039676473 -0.01111581 0.053576667 -0.021487702 -0.014767976 0.05944803 -0.016251771 0.012285892 0.057761088 -0.13797146 0.012694085 0.056430172 -0.14400066 -0.014767976 0.05944803 -0.016251771 0.012694085 0.056430172 -0.14400066 0.012285892 0.057761088 -0.13797146 0.014783924 0.053505965 -0.14283104 -0.012387293 0.058304921 -0.022747658 -0.01111581 0.053576667 -0.021487702 0.014783924 0.053505965 -0.14283104 -0.01111581 0.053576667 -0.021487702 -0.012387293 0.058304921 -0.022747658 -0.014767976 0.05944803 -0.016251771 0.012694085 0.056430172 -0.14400066 -0.010686929 0.044382315 -0.035211205 -0.014767976 0.05944803 -0.016251771 -0.0063226847 0.035876926 -0.055445462 -0.010686929 0.044382315 -0.035211205 0.012694085 0.056430172 -0.14400066 -0.010686929 0.044382315 -0.035211205 -0.0083727278 0.036903474 -0.039676473 -0.014767976 0.05944803 -0.016251771 -0.010686929 0.044382315 -0.035211205 -0.0063226847 0.035876926 -0.055445462 -0.0083727278 0.036903474 -0.039676473 -0.01111581 0.053576667 -0.021487702 0.0016268154 0.047137436 -0.08057408 0.014783924 0.053505965 -0.14283104 0.0092055947 0.037573785 -0.12391014 0.012694085 0.056430172 -0.14400066 0.014783924 0.053505965 -0.14283104 0.012285892 0.057761088 -0.13797146 0.011058034 0.057633448 -0.13183348 0.014783924 0.053505965 -0.14283104 0.011058034 0.057633448 -0.13183348 -0.012387293 0.058304921 -0.022747658 0.014783924 0.053505965 -0.14283104 -0.012437221 0.058525268 -0.023002019 0.012285892 0.057761088 -0.13797146 -0.014767976 0.05944803 -0.016251771 -0.012387293 0.058304921 -0.022747658 -0.012437221 0.058525268 -0.023002019 -0.014767976 0.05944803 -0.016251771 -0.012437221 0.058525268 -0.023002019 0.011058034 0.057633448 -0.13183348 0.012285892 0.057761088 -0.13797146 0.011058034 0.057633448 -0.13183348 -0.012437221 0.058525268 -0.023002019 -0.012387293 0.058304921 -0.022747658 0.0016268154 0.047137436 -0.08057408 0.0091138203 0.038653042 -0.11530741 0.014783924 0.053505965 -0.14283104 0.0091138203 0.038653042 -0.11530741 0.0092055947 0.037573785 -0.12391014 0.014783924 0.053505965 -0.14283104 0.0092055947 0.037573785 -0.12391014 0.0091138203 0.038653042 -0.11530741 0.0049165972 0.036186874 -0.095793024 0.0091138203 0.038653042 -0.11530741 -0.0038643312 0.035677191 -0.054985344 0.0049165972 0.036186874 -0.095793024 -0.0082129398 0.042560156 -0.03481793 -0.01111581 0.053576667 -0.021487702 -0.0083727278 0.036903474 -0.039676473 -0.0038643312 0.035677191 -0.054985344 -0.0082129398 0.042560156 -0.03481793 -0.0083727278 0.036903474 -0.039676473 0.0091138203 0.038653042 -0.11530741 -0.0082129398 0.042560156 -0.03481793 -0.0038643312 0.035677191 -0.054985344 -0.0038643312 0.035677191 -0.054985344 -0.0032787721 0.033931792 -0.063912399 0.0049165972 0.036186874 -0.095793024 -0.0063226847 0.035876926 -0.055445462 -0.0032787721 0.033931792 -0.063912399 -0.0083727278 0.036903474 -0.039676473 -0.0032787721 0.033931792 -0.063912399 -0.0038643312 0.035677191 -0.054985344 -0.0083727278 0.036903474 -0.039676473 -0.0063214628 0.045746144 -0.043627489 0.0016268154 0.047137436 -0.08057408 -0.01111581 0.053576667 -0.021487702 -0.0082129398 0.042560156 -0.03481793 -0.0063214628 0.045746144 -0.043627489 -0.01111581 0.053576667 -0.021487702 -0.0063214628 0.045746144 -0.043627489 0.0091138203 0.038653042 -0.11530741 0.0016268154 0.047137436 -0.08057408 -0.0063214628 0.045746144 -0.043627489 -0.0082129398 0.042560156 -0.03481793 0.0091138203 0.038653042 -0.11530741 0.0022373404 0.035091721 -0.095212579 0.0092055947 0.037573785 -0.12391014 0.0049165972 0.036186874 -0.095793024 -0.0032787721 0.033931792 -0.063912399 0.0022373404 0.035091721 -0.095212579 0.0049165972 0.036186874 -0.095793024 0.0022373404 0.035091721 -0.095212579 -0.0032787721 0.033931792 -0.063912399 -0.0063226847 0.035876926 -0.055445462 0.0022373404 0.035091721 -0.095212579 -0.0063226847 0.035876926 -0.055445462 0.012694085 0.056430172 -0.14400066 0.0092055947 0.037573785 -0.12391014 0.0022373404 0.035091721 -0.095212579 0.012694085 0.056430172 -0.14400066 </float_array>
          <technique_common>
            <accessor count="108" offset="0" source="#meshId0-positions-array" stride="3">
              <param name="X" type="float" />
              <param name="Y" type="float" />
              <param name="Z" type="float" />
            </accessor>
          </technique_common>
        </source>
        <vertices id="meshId0-vertices">
          <input semantic="POSITION" source="#meshId0-positions" />
        </vertices>
        <polylist count="36" material="defaultMaterial">
          <input offset="0" semantic="VERTEX" source="#meshId0-vertices" />
          <vcount>3 3 3 3 3 3 3 3 3 3 3 3 3 3 3 3 3 3 3 3 3 3 3 3 3 3 3 3 3 3 3 3 3 3 3 3 </vcount>
          <p>0 1 2 3 4 5 6 7 8 9 10 11 12 13 14 15 16 17 18 19 20 21 22 23 24 25 26 27 28 29 30 31 32 33 34 35 36 37 38 39 40 41 42 43 44 45 46 47 48 49 50 51 52 53 54 55 56 57 58 59 60 61 62 63 64 65 66 67 68 69 70 71 72 73 74 75 76 77 78 79 80 81 82 83 84 85 86 87 88 89 90 91 92 93 94 95 96 97 98 99 100 101 102 103 104 105 106 107 </p>
        </polylist>
      </mesh>
    </geometry>
  </library_geometries>
  <library_controllers>
  </library_controllers>
  <library_visual_scenes>
    <visual_scene id="Scene" name="Scene">
      <node id="Node_0x7fe6917b6bb0"  name="Node_0x7fe6917b6bb0" type="NODE">
        <matrix sid="matrix">1 0 0 0 0 1 0 0 0 0 1 0 0 0 0 1</matrix>
        <instance_geometry url="#meshId0">
          <bind_material>
            <technique_common>
              <instance_material symbol="defaultMaterial" target="#m0mat">
              </instance_material>
            </technique_common>
          </bind_material>
        </instance_geometry>
      </node>
    </visual_scene>
  </library_visual_scenes>
  <scene>
    <instance_visual_scene url="#Scene" />
  </scene>
</COLLADA>
