<?xml version="1.0" encoding="UTF-8" standalone="no" ?>
<COLLADA xmlns="http://www.collada.org/2005/11/COLLADASchema" version="1.4.1">
  <asset>
    <contributor>
      <author>Assimp</author>
      <authoring_tool>Assimp Exporter</authoring_tool>
    </contributor>
    <created>2025-05-05T11:37:05</created>
    <modified>2025-05-05T11:37:05</modified>
    <unit name="meter" meter="1" />
    <up_axis>Y_UP</up_axis>
  </asset>
  <library_effects>
    <effect id="m0mat-fx" name="m0mat">
      <profile_COMMON>
        <technique sid="standard">
          <phong>
            <emission>
              <color sid="emission">0   0   0   4.5881314e-41</color>
            </emission>
            <ambient>
              <color sid="ambient">0.69999999   1   0.69999999   0</color>
            </ambient>
            <diffuse>
              <color sid="diffuse">0.69999999   1   0.69999999   0</color>
            </diffuse>
            <specular>
              <color sid="specular">0.25   0.25   0.25   -5.7961129e-34</color>
            </specular>
          </phong>
        </technique>
      </profile_COMMON>
    </effect>
  </library_effects>
  <library_materials>
    <material id="m0mat" name="m0mat">
      <instance_effect url="#m0mat-fx"/>
    </material>
  </library_materials>
  <library_geometries>
    <geometry id="meshId0" name="meshId0_name" >
      <mesh>
        <source id="meshId0-positions" name="meshId0-positions">
          <float_array id="meshId0-positions-array" count="270"> -0.010911683 -0.059636746 -0.01865376 0.014394651 -0.052445602 -0.13942339 -0.010860288 0.059636187 -0.019307286 -0.01306364 -0.058189277 -0.022180216 -0.010911683 -0.059636746 -0.01865376 -0.010860288 0.059636187 -0.019307286 -0.010911683 -0.059636746 -0.01865376 -0.013163409 -0.058988366 -0.022795474 0.013000078 -0.059074994 -0.14402033 -0.013163409 -0.058988366 -0.022795474 -0.013045167 -0.058533903 -0.023418505 0.013000078 -0.059074994 -0.14402033 -0.01306364 -0.058189277 -0.022180216 -0.013163409 -0.058988366 -0.022795474 -0.010911683 -0.059636746 -0.01865376 0.012284202 0.057760373 -0.13797298 -0.012514929 0.058420323 -0.022745101 -0.010860288 0.059636187 -0.019307286 -0.012514929 0.058420323 -0.022745101 -0.01306364 -0.058189277 -0.022180216 -0.010860288 0.059636187 -0.019307286 -0.012514929 0.058420323 -0.022745101 -0.013163409 -0.058988366 -0.022795474 -0.01306364 -0.058189277 -0.022180216 0.012692905 0.056429021 -0.14400031 -0.012514929 0.058420323 -0.022745101 0.012284202 0.057760373 -0.13797298 0.014783303 0.053506155 -0.14283073 0.012284202 0.057760373 -0.13797298 -0.010860288 0.059636187 -0.019307286 0.014394651 -0.052445602 -0.13942339 0.014783303 0.053506155 -0.14283073 -0.010860288 0.059636187 -0.019307286 0.014783303 0.053506155 -0.14283073 0.012692905 0.056429021 -0.14400031 0.012284202 0.057760373 -0.13797298 0.014783303 0.053506155 -0.14283073 0.014394651 -0.052445602 -0.13942339 0.013000078 -0.059074994 -0.14402033 0.012692905 0.056429021 -0.14400031 0.014783303 0.053506155 -0.14283073 0.013000078 -0.059074994 -0.14402033 0.011827094 -0.058790222 -0.13406885 -0.010911683 -0.059636746 -0.01865376 0.013000078 -0.059074994 -0.14402033 0.014394651 -0.052445602 -0.13942339 0.011827094 -0.058790222 -0.13406885 0.013000078 -0.059074994 -0.14402033 0.011827094 -0.058790222 -0.13406885 0.014394651 -0.052445602 -0.13942339 -0.010911683 -0.059636746 -0.01865376 -0.013045167 -0.058533903 -0.023418505 0.0070872582 -0.046900421 -0.11726916 0.013000078 -0.059074994 -0.14402033 0.0070872582 -0.046900421 -0.11726916 0.012692905 0.056429021 -0.14400031 0.013000078 -0.059074994 -0.14402033 0.012692905 0.056429021 -0.14400031 -0.0099197496 0.0049740961 -0.038551487 -0.012514929 0.058420323 -0.022745101 -0.013163409 -0.058988366 -0.022795474 -0.0099197496 0.0049740961 -0.038551487 -0.013045167 -0.058533903 -0.023418505 -0.012514929 0.058420323 -0.022745101 -0.0099197496 0.0049740961 -0.038551487 -0.013163409 -0.058988366 -0.022795474 -0.010646258 -0.038888074 -0.034912284 -0.0099197496 0.0049740961 -0.038551487 0.012692905 0.056429021 -0.14400031 0.0070872582 -0.046900421 -0.11726916 -0.0096699307 -0.046583213 -0.039399918 0.012692905 0.056429021 -0.14400031 -0.0096699307 -0.046583213 -0.039399918 -0.010646258 -0.038888074 -0.034912284 0.012692905 0.056429021 -0.14400031 -0.0096699307 -0.046583213 -0.039399918 0.0070872582 -0.046900421 -0.11726916 -0.013045167 -0.058533903 -0.023418505 -0.010646258 -0.038888074 -0.034912284 -0.0096699307 -0.046583213 -0.039399918 -0.013045167 -0.058533903 -0.023418505 -0.0099197496 0.0049740961 -0.038551487 -0.010784795 -0.019438021 -0.03438076 -0.013045167 -0.058533903 -0.023418505 -0.010784795 -0.019438021 -0.03438076 -0.010646258 -0.038888074 -0.034912284 -0.013045167 -0.058533903 -0.023418505 -0.010646258 -0.038888074 -0.034912284 -0.010784795 -0.019438021 -0.03438076 -0.0099197496 0.0049740961 -0.038551487 </float_array>
          <technique_common>
            <accessor count="90" offset="0" source="#meshId0-positions-array" stride="3">
              <param name="X" type="float" />
              <param name="Y" type="float" />
              <param name="Z" type="float" />
            </accessor>
          </technique_common>
        </source>
        <vertices id="meshId0-vertices">
          <input semantic="POSITION" source="#meshId0-positions" />
        </vertices>
        <polylist count="30" material="defaultMaterial">
          <input offset="0" semantic="VERTEX" source="#meshId0-vertices" />
          <vcount>3 3 3 3 3 3 3 3 3 3 3 3 3 3 3 3 3 3 3 3 3 3 3 3 3 3 3 3 3 3 </vcount>
          <p>0 1 2 3 4 5 6 7 8 9 10 11 12 13 14 15 16 17 18 19 20 21 22 23 24 25 26 27 28 29 30 31 32 33 34 35 36 37 38 39 40 41 42 43 44 45 46 47 48 49 50 51 52 53 54 55 56 57 58 59 60 61 62 63 64 65 66 67 68 69 70 71 72 73 74 75 76 77 78 79 80 81 82 83 84 85 86 87 88 89 </p>
        </polylist>
      </mesh>
    </geometry>
  </library_geometries>
  <library_controllers>
  </library_controllers>
  <library_visual_scenes>
    <visual_scene id="Scene" name="Scene">
      <node id="Node_0x7fe6917b6bb0"  name="Node_0x7fe6917b6bb0" type="NODE">
        <matrix sid="matrix">1 0 0 0 0 1 0 0 0 0 1 0 0 0 0 1</matrix>
        <instance_geometry url="#meshId0">
          <bind_material>
            <technique_common>
              <instance_material symbol="defaultMaterial" target="#m0mat">
              </instance_material>
            </technique_common>
          </bind_material>
        </instance_geometry>
      </node>
    </visual_scene>
  </library_visual_scenes>
  <scene>
    <instance_visual_scene url="#Scene" />
  </scene>
</COLLADA>
