<?xml version="1.0" encoding="UTF-8" standalone="no" ?>
<COLLADA xmlns="http://www.collada.org/2005/11/COLLADASchema" version="1.4.1">
  <asset>
    <contributor>
      <author>Assimp</author>
      <authoring_tool>Assimp Exporter</authoring_tool>
    </contributor>
    <created>2025-05-05T11:37:05</created>
    <modified>2025-05-05T11:37:05</modified>
    <unit name="meter" meter="1" />
    <up_axis>Y_UP</up_axis>
  </asset>
  <library_effects>
    <effect id="m0mat-fx" name="m0mat">
      <profile_COMMON>
        <technique sid="standard">
          <phong>
            <emission>
              <color sid="emission">0   0   0   4.5881314e-41</color>
            </emission>
            <ambient>
              <color sid="ambient">0.69999999   1   0.69999999   0</color>
            </ambient>
            <diffuse>
              <color sid="diffuse">0.69999999   1   0.69999999   0</color>
            </diffuse>
            <specular>
              <color sid="specular">0.25   0.25   0.25   -5.8734515e-27</color>
            </specular>
          </phong>
        </technique>
      </profile_COMMON>
    </effect>
  </library_effects>
  <library_materials>
    <material id="m0mat" name="m0mat">
      <instance_effect url="#m0mat-fx"/>
    </material>
  </library_materials>
  <library_geometries>
    <geometry id="meshId0" name="meshId0_name" >
      <mesh>
        <source id="meshId0-positions" name="meshId0-positions">
          <float_array id="meshId0-positions-array" count="270"> 0.01300229 -0.059075024 -0.14402071 -0.0060891667 -0.043128505 -0.044169676 -0.0096687125 -0.046583742 -0.039399099 0.014396135 -0.052444912 -0.13942264 0.01300229 -0.059075024 -0.14402071 0.010999703 -0.018411387 -0.12372667 0.0087162228 -0.042424001 -0.12485787 0.01300229 -0.059075024 -0.14402071 -0.0096687125 -0.046583742 -0.039399099 0.0026469475 -0.0042977259 -0.096882336 0.0087162228 -0.042424001 -0.12485787 -0.0096687125 -0.046583742 -0.039399099 0.0086788898 -0.018167956 -0.12482845 0.0026469475 -0.0042977259 -0.096882336 0.0060898811 0.0051842905 -0.10321701 0.01300229 -0.059075024 -0.14402071 0.0086788898 -0.018167956 -0.12482845 0.010999703 -0.018411387 -0.12372667 0.0086788898 -0.018167956 -0.12482845 0.0060898811 0.0051842905 -0.10321701 0.010999703 -0.018411387 -0.12372667 0.0087162228 -0.042424001 -0.12485787 0.0086788898 -0.018167956 -0.12482845 0.01300229 -0.059075024 -0.14402071 0.0086788898 -0.018167956 -0.12482845 0.0087162228 -0.042424001 -0.12485787 0.0026469475 -0.0042977259 -0.096882336 -0.0060891667 -0.043128505 -0.044169676 0.011170076 -0.043250479 -0.12437108 0.010999703 -0.018411387 -0.12372667 0.011170076 -0.043250479 -0.12437108 0.014396135 -0.052444912 -0.13942264 0.010999703 -0.018411387 -0.12372667 0.000782241 -0.046408176 -0.076084271 -0.0060891667 -0.043128505 -0.044169676 0.01300229 -0.059075024 -0.14402071 0.014396135 -0.052444912 -0.13942264 0.000782241 -0.046408176 -0.076084271 0.01300229 -0.059075024 -0.14402071 0.000782241 -0.046408176 -0.076084271 0.011170076 -0.043250479 -0.12437108 -0.0060891667 -0.043128505 -0.044169676 0.011170076 -0.043250479 -0.12437108 0.000782241 -0.046408176 -0.076084271 0.014396135 -0.052444912 -0.13942264 0.0058992156 -0.0039700214 -0.10011492 -0.0060891667 -0.043128505 -0.044169676 0.010999703 -0.018411387 -0.12372667 0.0060898811 0.0051842905 -0.10321701 0.0058992156 -0.0039700214 -0.10011492 0.010999703 -0.018411387 -0.12372667 -0.0019331531 -0.0079756957 -0.063699961 0.0058992156 -0.0039700214 -0.10011492 0.0060898811 0.0051842905 -0.10321701 -0.0043249521 -0.0080367029 -0.064460978 0.0026469475 -0.0042977259 -0.096882336 -0.0096687125 -0.046583742 -0.039399099 0.0058992156 -0.0039700214 -0.10011492 -0.0066199889 -0.016484266 -0.041867141 -0.0060891667 -0.043128505 -0.044169676 -0.0066199889 -0.016484266 -0.041867141 0.0058992156 -0.0039700214 -0.10011492 -0.0019331531 -0.0079756957 -0.063699961 -0.0060891667 -0.043128505 -0.044169676 -0.0066199889 -0.016484266 -0.041867141 -0.0096687125 -0.046583742 -0.039399099 0.0010623973 0.0014975687 -0.08483541 -0.0019331531 -0.0079756957 -0.063699961 0.0060898811 0.0051842905 -0.10321701 0.0026469475 -0.0042977259 -0.096882336 0.0010623973 0.0014975687 -0.08483541 0.0060898811 0.0051842905 -0.10321701 -0.0043249521 -0.0080367029 -0.064460978 0.0010623973 0.0014975687 -0.08483541 0.0026469475 -0.0042977259 -0.096882336 0.0010623973 0.0014975687 -0.08483541 -0.0066199889 -0.016484266 -0.041867141 -0.0019331531 -0.0079756957 -0.063699961 -0.0066199889 -0.016484266 -0.041867141 0.0010623973 0.0014975687 -0.08483541 -0.0043249521 -0.0080367029 -0.064460978 -0.0055881063 -0.01400975 -0.058554634 -0.0043249521 -0.0080367029 -0.064460978 -0.0096687125 -0.046583742 -0.039399099 -0.0066199889 -0.016484266 -0.041867141 -0.0055881063 -0.01400975 -0.058554634 -0.0096687125 -0.046583742 -0.039399099 -0.0055881063 -0.01400975 -0.058554634 -0.0066199889 -0.016484266 -0.041867141 -0.0043249521 -0.0080367029 -0.064460978 </float_array>
          <technique_common>
            <accessor count="90" offset="0" source="#meshId0-positions-array" stride="3">
              <param name="X" type="float" />
              <param name="Y" type="float" />
              <param name="Z" type="float" />
            </accessor>
          </technique_common>
        </source>
        <vertices id="meshId0-vertices">
          <input semantic="POSITION" source="#meshId0-positions" />
        </vertices>
        <polylist count="30" material="defaultMaterial">
          <input offset="0" semantic="VERTEX" source="#meshId0-vertices" />
          <vcount>3 3 3 3 3 3 3 3 3 3 3 3 3 3 3 3 3 3 3 3 3 3 3 3 3 3 3 3 3 3 </vcount>
          <p>0 1 2 3 4 5 6 7 8 9 10 11 12 13 14 15 16 17 18 19 20 21 22 23 24 25 26 27 28 29 30 31 32 33 34 35 36 37 38 39 40 41 42 43 44 45 46 47 48 49 50 51 52 53 54 55 56 57 58 59 60 61 62 63 64 65 66 67 68 69 70 71 72 73 74 75 76 77 78 79 80 81 82 83 84 85 86 87 88 89 </p>
        </polylist>
      </mesh>
    </geometry>
  </library_geometries>
  <library_controllers>
  </library_controllers>
  <library_visual_scenes>
    <visual_scene id="Scene" name="Scene">
      <node id="Node_0x7fe6917b6bb0"  name="Node_0x7fe6917b6bb0" type="NODE">
        <matrix sid="matrix">1 0 0 0 0 1 0 0 0 0 1 0 0 0 0 1</matrix>
        <instance_geometry url="#meshId0">
          <bind_material>
            <technique_common>
              <instance_material symbol="defaultMaterial" target="#m0mat">
              </instance_material>
            </technique_common>
          </bind_material>
        </instance_geometry>
      </node>
    </visual_scene>
  </library_visual_scenes>
  <scene>
    <instance_visual_scene url="#Scene" />
  </scene>
</COLLADA>
