<?xml version="1.0" encoding="UTF-8" standalone="no" ?>
<COLLADA xmlns="http://www.collada.org/2005/11/COLLADASchema" version="1.4.1">
  <asset>
    <contributor>
      <author>Assimp</author>
      <authoring_tool>Assimp Exporter</authoring_tool>
    </contributor>
    <created>2025-05-05T11:37:05</created>
    <modified>2025-05-05T11:37:05</modified>
    <unit name="meter" meter="1" />
    <up_axis>Y_UP</up_axis>
  </asset>
  <library_effects>
    <effect id="m0mat-fx" name="m0mat">
      <profile_COMMON>
        <technique sid="standard">
          <phong>
            <emission>
              <color sid="emission">0   0   0   4.5881314e-41</color>
            </emission>
            <ambient>
              <color sid="ambient">0.69999999   1   0.69999999   0</color>
            </ambient>
            <diffuse>
              <color sid="diffuse">0.69999999   1   0.69999999   0</color>
            </diffuse>
            <specular>
              <color sid="specular">0.25   0.25   0.25   -6.3969779e-27</color>
            </specular>
          </phong>
        </technique>
      </profile_COMMON>
    </effect>
  </library_effects>
  <library_materials>
    <material id="m0mat" name="m0mat">
      <instance_effect url="#m0mat-fx"/>
    </material>
  </library_materials>
  <library_geometries>
    <geometry id="meshId0" name="meshId0_name" >
      <mesh>
        <source id="meshId0-positions" name="meshId0-positions">
          <float_array id="meshId0-positions-array" count="288"> -0.0099180266 0.0049750768 -0.03854977 0.0090287589 -0.019097367 -0.11456876 -0.0081993686 0.018074185 -0.034729764 0.0090287589 -0.019097367 -0.11456876 0.008679037 -0.018167537 -0.12482932 0.010998583 -0.01841096 -0.12372647 0.0090287589 -0.019097367 -0.11456876 0.0097052483 0.025737876 -0.11797431 -0.0081993686 0.018074185 -0.034729764 0.0097052483 0.025737876 -0.11797431 0.0090287589 -0.019097367 -0.11456876 0.010998583 -0.01841096 -0.12372647 0.0097052483 0.025737876 -0.11797431 0.0016275101 0.047137242 -0.080574095 -0.0081993686 0.018074185 -0.034729764 0.0016275101 0.047137242 -0.080574095 0.0097052483 0.025737876 -0.11797431 0.0091132736 0.038653385 -0.1153079 -0.0016491896 0.045493364 -0.077220604 0.0016275101 0.047137242 -0.080574095 0.0085105393 0.046420168 -0.12163594 0.0016275101 0.047137242 -0.080574095 0.0091132736 0.038653385 -0.1153079 0.0085105393 0.046420168 -0.12163594 0.008679037 -0.018167537 -0.12482932 0.0088147093 0.021434829 -0.12569557 0.010998583 -0.01841096 -0.12372647 -0.0016491896 0.045493364 -0.077220604 0.0065808762 0.040965412 -0.1154398 -0.0099180266 0.0049750768 -0.03854977 0.0065808762 0.040965412 -0.1154398 0.008679037 -0.018167537 -0.12482932 -0.0099180266 0.0049750768 -0.03854977 0.0065808762 0.040965412 -0.1154398 0.0088147093 0.021434829 -0.12569557 0.008679037 -0.018167537 -0.12482932 0.0065808762 0.040965412 -0.1154398 -0.0016491896 0.045493364 -0.077220604 0.0085105393 0.046420168 -0.12163594 0.0088147093 0.021434829 -0.12569557 0.0065808762 0.040965412 -0.1154398 0.0085105393 0.046420168 -0.12163594 0.008679037 -0.018167537 -0.12482932 0.0027729576 -0.013608539 -0.09740793 -0.0099180266 0.0049750768 -0.03854977 0.0027729576 -0.013608539 -0.09740793 0.0090287589 -0.019097367 -0.11456876 -0.0099180266 0.0049750768 -0.03854977 0.0090287589 -0.019097367 -0.11456876 0.0027729576 -0.013608539 -0.09740793 0.008679037 -0.018167537 -0.12482932 -0.0096714748 0.015533087 -0.039757464 -0.0016491896 0.045493364 -0.077220604 -0.0099180266 0.0049750768 -0.03854977 -0.0096714748 0.015533087 -0.039757464 -0.0087720109 0.024554126 -0.043990187 -0.0016491896 0.045493364 -0.077220604 -0.0096714748 0.015533087 -0.039757464 -0.0099180266 0.0049750768 -0.03854977 -0.0081993686 0.018074185 -0.034729764 -0.0087720109 0.024554126 -0.043990187 -0.0096714748 0.015533087 -0.039757464 -0.0081993686 0.018074185 -0.034729764 0.010471332 0.0062146536 -0.12142183 0.0097052483 0.025737876 -0.11797431 0.010998583 -0.01841096 -0.12372647 -0.0070992112 0.025831314 -0.039896525 -0.0087720109 0.024554126 -0.043990187 -0.0081993686 0.018074185 -0.034729764 0.0016275101 0.047137242 -0.080574095 -0.0070992112 0.025831314 -0.039896525 -0.0081993686 0.018074185 -0.034729764 -0.0087720109 0.024554126 -0.043990187 -0.0070992112 0.025831314 -0.039896525 -0.0016491896 0.045493364 -0.077220604 -0.0070992112 0.025831314 -0.039896525 0.0016275101 0.047137242 -0.080574095 -0.0016491896 0.045493364 -0.077220604 0.0088147093 0.021434829 -0.12569557 0.0092052761 0.037574019 -0.12390943 0.010998583 -0.01841096 -0.12372647 0.0092052761 0.037574019 -0.12390943 0.010471332 0.0062146536 -0.12142183 0.010998583 -0.01841096 -0.12372647 0.0092052761 0.037574019 -0.12390943 0.0088147093 0.021434829 -0.12569557 0.0085105393 0.046420168 -0.12163594 0.010471332 0.0062146536 -0.12142183 0.0092052761 0.037574019 -0.12390943 0.0097052483 0.025737876 -0.11797431 0.0091132736 0.038653385 -0.1153079 0.0092052761 0.037574019 -0.12390943 0.0085105393 0.046420168 -0.12163594 0.0097052483 0.025737876 -0.11797431 0.0092052761 0.037574019 -0.12390943 0.0091132736 0.038653385 -0.1153079 </float_array>
          <technique_common>
            <accessor count="96" offset="0" source="#meshId0-positions-array" stride="3">
              <param name="X" type="float" />
              <param name="Y" type="float" />
              <param name="Z" type="float" />
            </accessor>
          </technique_common>
        </source>
        <vertices id="meshId0-vertices">
          <input semantic="POSITION" source="#meshId0-positions" />
        </vertices>
        <polylist count="32" material="defaultMaterial">
          <input offset="0" semantic="VERTEX" source="#meshId0-vertices" />
          <vcount>3 3 3 3 3 3 3 3 3 3 3 3 3 3 3 3 3 3 3 3 3 3 3 3 3 3 3 3 3 3 3 3 </vcount>
          <p>0 1 2 3 4 5 6 7 8 9 10 11 12 13 14 15 16 17 18 19 20 21 22 23 24 25 26 27 28 29 30 31 32 33 34 35 36 37 38 39 40 41 42 43 44 45 46 47 48 49 50 51 52 53 54 55 56 57 58 59 60 61 62 63 64 65 66 67 68 69 70 71 72 73 74 75 76 77 78 79 80 81 82 83 84 85 86 87 88 89 90 91 92 93 94 95 </p>
        </polylist>
      </mesh>
    </geometry>
  </library_geometries>
  <library_controllers>
  </library_controllers>
  <library_visual_scenes>
    <visual_scene id="Scene" name="Scene">
      <node id="Node_0x7fe6917b6bb0"  name="Node_0x7fe6917b6bb0" type="NODE">
        <matrix sid="matrix">1 0 0 0 0 1 0 0 0 0 1 0 0 0 0 1</matrix>
        <instance_geometry url="#meshId0">
          <bind_material>
            <technique_common>
              <instance_material symbol="defaultMaterial" target="#m0mat">
              </instance_material>
            </technique_common>
          </bind_material>
        </instance_geometry>
      </node>
    </visual_scene>
  </library_visual_scenes>
  <scene>
    <instance_visual_scene url="#Scene" />
  </scene>
</COLLADA>
