<?xml version="1.0" encoding="UTF-8" standalone="no" ?>
<COLLADA xmlns="http://www.collada.org/2005/11/COLLADASchema" version="1.4.1">
  <asset>
    <contributor>
      <author>Assimp</author>
      <authoring_tool>Assimp Exporter</authoring_tool>
    </contributor>
    <created>2025-05-05T11:37:05</created>
    <modified>2025-05-05T11:37:05</modified>
    <unit name="meter" meter="1" />
    <up_axis>Y_UP</up_axis>
  </asset>
  <library_effects>
    <effect id="m0mat-fx" name="m0mat">
      <profile_COMMON>
        <technique sid="standard">
          <phong>
            <emission>
              <color sid="emission">0   0   0   4.5881314e-41</color>
            </emission>
            <ambient>
              <color sid="ambient">0.69999999   1   0.69999999   0</color>
            </ambient>
            <diffuse>
              <color sid="diffuse">0.69999999   1   0.69999999   0</color>
            </diffuse>
            <specular>
              <color sid="specular">0.25   0.25   0.25   -1.6304634e-28</color>
            </specular>
          </phong>
        </technique>
      </profile_COMMON>
    </effect>
  </library_effects>
  <library_materials>
    <material id="m0mat" name="m0mat">
      <instance_effect url="#m0mat-fx"/>
    </material>
  </library_materials>
  <library_geometries>
    <geometry id="meshId0" name="meshId0_name" >
      <mesh>
        <source id="meshId0-positions" name="meshId0-positions">
          <float_array id="meshId0-positions-array" count="144"> -0.0055669197 0.026470421 -0.0016847817 0.0056444826 0.00015478201 0.006564877 -0.00058050617 0.0063324547 0.0073136771 0.01474787 -0.0085348384 0.068318948 -0.0055669197 0.026470421 -0.0016847817 -0.00058050617 0.0063324547 0.0073136771 0.01474787 -0.0085348384 0.068318948 0.013766661 0.0085420255 0.037266769 0.01407607 0.0095894067 0.073826283 -0.0055669197 0.026470421 -0.0016847817 0.010590557 0.011990543 0.062716074 0.01407607 0.0095894067 0.073826283 0.010590557 0.011990543 0.062716074 0.01474787 -0.0085348384 0.068318948 0.01407607 0.0095894067 0.073826283 0.01474787 -0.0085348384 0.068318948 0.010590557 0.011990543 0.062716074 -0.0055669197 0.026470421 -0.0016847817 0.0070339083 0.0097311744 0.017911488 0.013766661 0.0085420255 0.037266769 0.0056444826 0.00015478201 0.006564877 0.013766661 0.0085420255 0.037266769 0.0096022775 -0.0069692233 0.020227874 0.0056444826 0.00015478201 0.006564877 0.0096022775 -0.0069692233 0.020227874 0.013766661 0.0085420255 0.037266769 0.01474787 -0.0085348384 0.068318948 0.0056444826 0.00015478201 0.006564877 0.0096022775 -0.0069692233 0.020227874 -0.00058050617 0.0063324547 0.0073136771 0.0096022775 -0.0069692233 0.020227874 0.01474787 -0.0085348384 0.068318948 -0.00058050617 0.0063324547 0.0073136771 0.0070339083 0.0097311744 0.017911488 -0.0055389469 0.026462555 -0.0016498297 0.013766661 0.0085420255 0.037266769 -0.0055389469 0.026462555 -0.0016498297 -0.0055669197 0.026470421 -0.0016847817 0.01407607 0.0095894067 0.073826283 0.013766661 0.0085420255 0.037266769 -0.0055389469 0.026462555 -0.0016498297 0.01407607 0.0095894067 0.073826283 -0.0055669197 0.026470421 -0.0016847817 -0.0055389469 0.026462555 -0.0016498297 0.0056444826 0.00015478201 0.006564877 -0.0055389469 0.026462555 -0.0016498297 0.0070339083 0.0097311744 0.017911488 0.0056444826 0.00015478201 0.006564877 </float_array>
          <technique_common>
            <accessor count="48" offset="0" source="#meshId0-positions-array" stride="3">
              <param name="X" type="float" />
              <param name="Y" type="float" />
              <param name="Z" type="float" />
            </accessor>
          </technique_common>
        </source>
        <vertices id="meshId0-vertices">
          <input semantic="POSITION" source="#meshId0-positions" />
        </vertices>
        <polylist count="16" material="defaultMaterial">
          <input offset="0" semantic="VERTEX" source="#meshId0-vertices" />
          <vcount>3 3 3 3 3 3 3 3 3 3 3 3 3 3 3 3 </vcount>
          <p>0 1 2 3 4 5 6 7 8 9 10 11 12 13 14 15 16 17 18 19 20 21 22 23 24 25 26 27 28 29 30 31 32 33 34 35 36 37 38 39 40 41 42 43 44 45 46 47 </p>
        </polylist>
      </mesh>
    </geometry>
  </library_geometries>
  <library_controllers>
  </library_controllers>
  <library_visual_scenes>
    <visual_scene id="Scene" name="Scene">
      <node id="Node_0x7fe6917b6bb0"  name="Node_0x7fe6917b6bb0" type="NODE">
        <matrix sid="matrix">1 0 0 0 0 1 0 0 0 0 1 0 0 0 0 1</matrix>
        <instance_geometry url="#meshId0">
          <bind_material>
            <technique_common>
              <instance_material symbol="defaultMaterial" target="#m0mat">
              </instance_material>
            </technique_common>
          </bind_material>
        </instance_geometry>
      </node>
    </visual_scene>
  </library_visual_scenes>
  <scene>
    <instance_visual_scene url="#Scene" />
  </scene>
</COLLADA>
