<?xml version="1.0" encoding="UTF-8" standalone="no" ?>
<COLLADA xmlns="http://www.collada.org/2005/11/COLLADASchema" version="1.4.1">
  <asset>
    <contributor>
      <author>Assimp</author>
      <authoring_tool>Assimp Exporter</authoring_tool>
    </contributor>
    <created>2025-05-05T11:37:05</created>
    <modified>2025-05-05T11:37:05</modified>
    <unit name="meter" meter="1" />
    <up_axis>Y_UP</up_axis>
  </asset>
  <library_effects>
    <effect id="m0mat-fx" name="m0mat">
      <profile_COMMON>
        <technique sid="standard">
          <phong>
            <emission>
              <color sid="emission">0   0   0   4.5881314e-41</color>
            </emission>
            <ambient>
              <color sid="ambient">0.69999999   1   0.69999999   0</color>
            </ambient>
            <diffuse>
              <color sid="diffuse">0.69999999   1   0.69999999   0</color>
            </diffuse>
            <specular>
              <color sid="specular">0.25   0.25   0.25   -4.1261615e-34</color>
            </specular>
          </phong>
        </technique>
      </profile_COMMON>
    </effect>
  </library_effects>
  <library_materials>
    <material id="m0mat" name="m0mat">
      <instance_effect url="#m0mat-fx"/>
    </material>
  </library_materials>
  <library_geometries>
    <geometry id="meshId0" name="meshId0_name" >
      <mesh>
        <source id="meshId0-positions" name="meshId0-positions">
          <float_array id="meshId0-positions-array" count="144"> -0.0064881179 0.012522832 0.12318266 -0.00050218962 0.0024214759 0.0063783741 -0.00058239326 0.0099579478 0.1221269 -0.00057945319 0.0063328194 0.0073147304 0.0028142387 0.0063427994 0.0051746648 -0.00050218962 0.0024214759 0.0063783741 -0.0064881179 0.012522832 0.12318266 -0.00057945319 0.0063328194 0.0073147304 -0.00050218962 0.0024214759 0.0063783741 0.012519764 0.0078920862 0.055073317 0.0091360677 0.0086991983 0.08145535 -0.00050218962 0.0024214759 0.0063783741 0.0028142387 0.0063427994 0.0051746648 0.012206336 0.0077002961 0.047843575 -0.00050218962 0.0024214759 0.0063783741 0.012206336 0.0077002961 0.047843575 0.012519764 0.0078920862 0.055073317 -0.00050218962 0.0024214759 0.0063783741 -0.00050218962 0.0024214759 0.0063783741 0.0081356093 0.0088355476 0.085793599 -0.00058239326 0.0099579478 0.1221269 0.0091360677 0.0086991983 0.08145535 0.0081356093 0.0088355476 0.085793599 -0.00050218962 0.0024214759 0.0063783741 0.010591141 0.011991708 0.062716499 0.0091360677 0.0086991983 0.08145535 0.012519764 0.0078920862 0.055073317 0.012206336 0.0077002961 0.047843575 0.010591141 0.011991708 0.062716499 0.012519764 0.0078920862 0.055073317 0.010591141 0.011991708 0.062716499 0.0081356093 0.0088355476 0.085793599 0.0091360677 0.0086991983 0.08145535 0.010591141 0.011991708 0.062716499 0.012206336 0.0077002961 0.047843575 0.0028142387 0.0063427994 0.0051746648 0.010591141 0.011991708 0.062716499 -0.0064881179 0.012522832 0.12318266 -0.00058239326 0.0099579478 0.1221269 0.0081356093 0.0088355476 0.085793599 0.010591141 0.011991708 0.062716499 -0.00058239326 0.0099579478 0.1221269 -0.00057945319 0.0063328194 0.0073147304 0.010591141 0.011991708 0.062716499 0.0028142387 0.0063427994 0.0051746648 0.010591141 0.011991708 0.062716499 -0.00057945319 0.0063328194 0.0073147304 -0.0064881179 0.012522832 0.12318266 </float_array>
          <technique_common>
            <accessor count="48" offset="0" source="#meshId0-positions-array" stride="3">
              <param name="X" type="float" />
              <param name="Y" type="float" />
              <param name="Z" type="float" />
            </accessor>
          </technique_common>
        </source>
        <vertices id="meshId0-vertices">
          <input semantic="POSITION" source="#meshId0-positions" />
        </vertices>
        <polylist count="16" material="defaultMaterial">
          <input offset="0" semantic="VERTEX" source="#meshId0-vertices" />
          <vcount>3 3 3 3 3 3 3 3 3 3 3 3 3 3 3 3 </vcount>
          <p>0 1 2 3 4 5 6 7 8 9 10 11 12 13 14 15 16 17 18 19 20 21 22 23 24 25 26 27 28 29 30 31 32 33 34 35 36 37 38 39 40 41 42 43 44 45 46 47 </p>
        </polylist>
      </mesh>
    </geometry>
  </library_geometries>
  <library_controllers>
  </library_controllers>
  <library_visual_scenes>
    <visual_scene id="Scene" name="Scene">
      <node id="Node_0x7fe6917b6bb0"  name="Node_0x7fe6917b6bb0" type="NODE">
        <matrix sid="matrix">1 0 0 0 0 1 0 0 0 0 1 0 0 0 0 1</matrix>
        <instance_geometry url="#meshId0">
          <bind_material>
            <technique_common>
              <instance_material symbol="defaultMaterial" target="#m0mat">
              </instance_material>
            </technique_common>
          </bind_material>
        </instance_geometry>
      </node>
    </visual_scene>
  </library_visual_scenes>
  <scene>
    <instance_visual_scene url="#Scene" />
  </scene>
</COLLADA>
