<?xml version="1.0" encoding="UTF-8" standalone="no" ?>
<COLLADA xmlns="http://www.collada.org/2005/11/COLLADASchema" version="1.4.1">
  <asset>
    <contributor>
      <author>Assimp</author>
      <authoring_tool>Assimp Exporter</authoring_tool>
    </contributor>
    <created>2025-05-05T11:37:05</created>
    <modified>2025-05-05T11:37:05</modified>
    <unit name="meter" meter="1" />
    <up_axis>Y_UP</up_axis>
  </asset>
  <library_effects>
    <effect id="m0mat-fx" name="m0mat">
      <profile_COMMON>
        <technique sid="standard">
          <phong>
            <emission>
              <color sid="emission">0   0   0   4.5881314e-41</color>
            </emission>
            <ambient>
              <color sid="ambient">0.69999999   1   0.69999999   0</color>
            </ambient>
            <diffuse>
              <color sid="diffuse">0.69999999   1   0.69999999   0</color>
            </diffuse>
            <specular>
              <color sid="specular">0.25   0.25   0.25   -4.1486208e-34</color>
            </specular>
          </phong>
        </technique>
      </profile_COMMON>
    </effect>
  </library_effects>
  <library_materials>
    <material id="m0mat" name="m0mat">
      <instance_effect url="#m0mat-fx"/>
    </material>
  </library_materials>
  <library_geometries>
    <geometry id="meshId0" name="meshId0_name" >
      <mesh>
        <source id="meshId0-positions" name="meshId0-positions">
          <float_array id="meshId0-positions-array" count="126"> -0.0037420539 0.010073614 0.12388877 0.0027324632 0.012148308 0.12550867 -0.0037042797 -0.012028103 0.12397236 -0.008024266 -0.0085206432 0.1431106 -0.0037420539 0.010073614 0.12388877 -0.0037042797 -0.012028103 0.12397236 -0.0038678825 -0.010957379 0.14402063 0.0027324632 0.012148308 0.12550867 -0.003891232 0.013346627 0.14386891 -0.0038678825 -0.010957379 0.14402063 -0.008024266 -0.0085206432 0.1431106 -0.0037042797 -0.012028103 0.12397236 0.0027324632 0.012148308 0.12550867 -0.00043515733 0.014790054 0.12472166 -0.003891232 0.013346627 0.14386891 -0.0037420539 0.010073614 0.12388877 -0.00043515733 0.014790054 0.12472166 0.0027324632 0.012148308 0.12550867 -0.0080020316 0.010748444 0.14299954 -0.0037420539 0.010073614 0.12388877 -0.008024266 -0.0085206432 0.1431106 -0.0080020316 0.010748444 0.14299954 -0.0038678825 -0.010957379 0.14402063 -0.003891232 0.013346627 0.14386891 -0.0038678825 -0.010957379 0.14402063 -0.0080020316 0.010748444 0.14299954 -0.008024266 -0.0085206432 0.1431106 -0.00043515733 0.014790054 0.12472166 -0.0080020316 0.010748444 0.14299954 -0.003891232 0.013346627 0.14386891 -0.0080020316 0.010748444 0.14299954 -0.00043515733 0.014790054 0.12472166 -0.0037420539 0.010073614 0.12388877 0.0027324632 0.012148308 0.12550867 0.00011607027 -0.0079641882 0.12496968 -0.0037042797 -0.012028103 0.12397236 0.00011607027 -0.0079641882 0.12496968 -0.0038678825 -0.010957379 0.14402063 -0.0037042797 -0.012028103 0.12397236 -0.0038678825 -0.010957379 0.14402063 0.00011607027 -0.0079641882 0.12496968 0.0027324632 0.012148308 0.12550867 </float_array>
          <technique_common>
            <accessor count="42" offset="0" source="#meshId0-positions-array" stride="3">
              <param name="X" type="float" />
              <param name="Y" type="float" />
              <param name="Z" type="float" />
            </accessor>
          </technique_common>
        </source>
        <vertices id="meshId0-vertices">
          <input semantic="POSITION" source="#meshId0-positions" />
        </vertices>
        <polylist count="14" material="defaultMaterial">
          <input offset="0" semantic="VERTEX" source="#meshId0-vertices" />
          <vcount>3 3 3 3 3 3 3 3 3 3 3 3 3 3 </vcount>
          <p>0 1 2 3 4 5 6 7 8 9 10 11 12 13 14 15 16 17 18 19 20 21 22 23 24 25 26 27 28 29 30 31 32 33 34 35 36 37 38 39 40 41 </p>
        </polylist>
      </mesh>
    </geometry>
  </library_geometries>
  <library_controllers>
  </library_controllers>
  <library_visual_scenes>
    <visual_scene id="Scene" name="Scene">
      <node id="Node_0x7fe6917b6bb0"  name="Node_0x7fe6917b6bb0" type="NODE">
        <matrix sid="matrix">1 0 0 0 0 1 0 0 0 0 1 0 0 0 0 1</matrix>
        <instance_geometry url="#meshId0">
          <bind_material>
            <technique_common>
              <instance_material symbol="defaultMaterial" target="#m0mat">
              </instance_material>
            </technique_common>
          </bind_material>
        </instance_geometry>
      </node>
    </visual_scene>
  </library_visual_scenes>
  <scene>
    <instance_visual_scene url="#Scene" />
  </scene>
</COLLADA>
