<?xml version="1.0" encoding="UTF-8" standalone="no" ?>
<COLLADA xmlns="http://www.collada.org/2005/11/COLLADASchema" version="1.4.1">
  <asset>
    <contributor>
      <author>Assimp</author>
      <authoring_tool>Assimp Exporter</authoring_tool>
    </contributor>
    <created>2025-05-05T11:37:05</created>
    <modified>2025-05-05T11:37:05</modified>
    <unit name="meter" meter="1" />
    <up_axis>Y_UP</up_axis>
  </asset>
  <library_effects>
    <effect id="m0mat-fx" name="m0mat">
      <profile_COMMON>
        <technique sid="standard">
          <phong>
            <emission>
              <color sid="emission">0   0   0   4.5881314e-41</color>
            </emission>
            <ambient>
              <color sid="ambient">0.69999999   1   0.69999999   0</color>
            </ambient>
            <diffuse>
              <color sid="diffuse">0.69999999   1   0.69999999   0</color>
            </diffuse>
            <specular>
              <color sid="specular">0.25   0.25   0.25   -2.0662648e-28</color>
            </specular>
          </phong>
        </technique>
      </profile_COMMON>
    </effect>
  </library_effects>
  <library_materials>
    <material id="m0mat" name="m0mat">
      <instance_effect url="#m0mat-fx"/>
    </material>
  </library_materials>
  <library_geometries>
    <geometry id="meshId0" name="meshId0_name" >
      <mesh>
        <source id="meshId0-positions" name="meshId0-positions">
          <float_array id="meshId0-positions-array" count="198"> -0.00050244859 0.0024210331 0.006377955 0.0039031261 -0.0078882147 0.080290832 0.0028138568 0.0063424464 0.0051742503 -0.00050244859 0.0024210331 0.006377955 -0.00022511801 -0.0056768293 0.0075083151 0.0039031261 -0.0078882147 0.080290832 0.0039031261 -0.0078882147 0.080290832 0.012206399 0.0077008018 0.047843922 0.0028138568 0.0063424464 0.0051742503 0.0095639424 -0.0071048113 0.081200615 0.012206399 0.0077008018 0.047843922 0.0039031261 -0.0078882147 0.080290832 0.012206399 0.0077008018 0.047843922 0.0096006701 -0.0069703222 0.020227779 0.0028138568 0.0063424464 0.0051742503 0.014747989 -0.0085344901 0.068318501 0.012206399 0.0077008018 0.047843922 0.0095639424 -0.0071048113 0.081200615 0.014747989 -0.0085344901 0.068318501 0.0099370498 -0.010084515 0.059982073 0.013089631 -0.010020695 0.051441152 0.014747989 -0.0085344901 0.068318501 0.0095639424 -0.0071048113 0.081200615 0.0039031261 -0.0078882147 0.080290832 0.0099370498 -0.010084515 0.059982073 0.014747989 -0.0085344901 0.068318501 0.0039031261 -0.0078882147 0.080290832 0.0096006701 -0.0069703222 0.020227779 0.0023903965 -0.0038655181 0.0052127345 0.0028138568 0.0063424464 0.0051742503 0.0023903965 -0.0038655181 0.0052127345 -0.00050244859 0.0024210331 0.006377955 0.0028138568 0.0063424464 0.0051742503 -0.00050244859 0.0024210331 0.006377955 0.0023903965 -0.0038655181 0.0052127345 -0.00022511801 -0.0056768293 0.0075083151 0.0025967725 -0.0090382043 0.017148113 0.0096006701 -0.0069703222 0.020227779 0.013089631 -0.010020695 0.051441152 0.0099370498 -0.010084515 0.059982073 0.0025967725 -0.0090382043 0.017148113 0.013089631 -0.010020695 0.051441152 0.0023903965 -0.0038655181 0.0052127345 0.0025967725 -0.0090382043 0.017148113 -0.00022511801 -0.0056768293 0.0075083151 0.0025967725 -0.0090382043 0.017148113 0.0023903965 -0.0038655181 0.0052127345 0.0096006701 -0.0069703222 0.020227779 -0.00022511801 -0.0056768293 0.0075083151 0.0025967725 -0.0090382043 0.017148113 0.0039031261 -0.0078882147 0.080290832 0.0025967725 -0.0090382043 0.017148113 0.0099370498 -0.010084515 0.059982073 0.0039031261 -0.0078882147 0.080290832 0.0096006701 -0.0069703222 0.020227779 0.012574917 -0.0064810328 0.046634622 0.013089631 -0.010020695 0.051441152 0.012574917 -0.0064810328 0.046634622 0.0096006701 -0.0069703222 0.020227779 0.012206399 0.0077008018 0.047843922 0.012574917 -0.0064810328 0.046634622 0.014747989 -0.0085344901 0.068318501 0.013089631 -0.010020695 0.051441152 0.014747989 -0.0085344901 0.068318501 0.012574917 -0.0064810328 0.046634622 0.012206399 0.0077008018 0.047843922 </float_array>
          <technique_common>
            <accessor count="66" offset="0" source="#meshId0-positions-array" stride="3">
              <param name="X" type="float" />
              <param name="Y" type="float" />
              <param name="Z" type="float" />
            </accessor>
          </technique_common>
        </source>
        <vertices id="meshId0-vertices">
          <input semantic="POSITION" source="#meshId0-positions" />
        </vertices>
        <polylist count="22" material="defaultMaterial">
          <input offset="0" semantic="VERTEX" source="#meshId0-vertices" />
          <vcount>3 3 3 3 3 3 3 3 3 3 3 3 3 3 3 3 3 3 3 3 3 3 </vcount>
          <p>0 1 2 3 4 5 6 7 8 9 10 11 12 13 14 15 16 17 18 19 20 21 22 23 24 25 26 27 28 29 30 31 32 33 34 35 36 37 38 39 40 41 42 43 44 45 46 47 48 49 50 51 52 53 54 55 56 57 58 59 60 61 62 63 64 65 </p>
        </polylist>
      </mesh>
    </geometry>
  </library_geometries>
  <library_controllers>
  </library_controllers>
  <library_visual_scenes>
    <visual_scene id="Scene" name="Scene">
      <node id="Node_0x7fe6917b6bb0"  name="Node_0x7fe6917b6bb0" type="NODE">
        <matrix sid="matrix">1 0 0 0 0 1 0 0 0 0 1 0 0 0 0 1</matrix>
        <instance_geometry url="#meshId0">
          <bind_material>
            <technique_common>
              <instance_material symbol="defaultMaterial" target="#m0mat">
              </instance_material>
            </technique_common>
          </bind_material>
        </instance_geometry>
      </node>
    </visual_scene>
  </library_visual_scenes>
  <scene>
    <instance_visual_scene url="#Scene" />
  </scene>
</COLLADA>
