<?xml version="1.0" encoding="UTF-8" standalone="no" ?>
<COLLADA xmlns="http://www.collada.org/2005/11/COLLADASchema" version="1.4.1">
  <asset>
    <contributor>
      <author>Assimp</author>
      <authoring_tool>Assimp Exporter</authoring_tool>
    </contributor>
    <created>2025-05-05T11:37:05</created>
    <modified>2025-05-05T11:37:05</modified>
    <unit name="meter" meter="1" />
    <up_axis>Y_UP</up_axis>
  </asset>
  <library_effects>
    <effect id="m0mat-fx" name="m0mat">
      <profile_COMMON>
        <technique sid="standard">
          <phong>
            <emission>
              <color sid="emission">0   0   0   4.5881314e-41</color>
            </emission>
            <ambient>
              <color sid="ambient">0.69999999   1   0.69999999   0</color>
            </ambient>
            <diffuse>
              <color sid="diffuse">0.69999999   1   0.69999999   0</color>
            </diffuse>
            <specular>
              <color sid="specular">0.25   0.25   0.25   -4.3785989e-34</color>
            </specular>
          </phong>
        </technique>
      </profile_COMMON>
    </effect>
  </library_effects>
  <library_materials>
    <material id="m0mat" name="m0mat">
      <instance_effect url="#m0mat-fx"/>
    </material>
  </library_materials>
  <library_geometries>
    <geometry id="meshId0" name="meshId0_name" >
      <mesh>
        <source id="meshId0-positions" name="meshId0-positions">
          <float_array id="meshId0-positions-array" count="90"> 0.009134951 0.0086985873 0.081454039 0.0039031438 -0.0078879735 0.08029069 0.0032760301 0.0088026263 0.082545705 0.0081340857 0.0088350577 0.085792765 0.009134951 0.0086985873 0.081454039 0.0032760301 0.0088026263 0.082545705 0.0042602718 -0.0072101858 0.084887534 0.0039031438 -0.0078879735 0.08029069 0.0081340866 -0.0071920678 0.085890017 0.0039031438 -0.0078879735 0.08029069 0.0042602718 -0.0072101858 0.084887534 0.0032760301 0.0088026263 0.082545705 0.0081340857 0.0088350577 0.085792765 0.0042602718 -0.0072101858 0.084887534 0.0081340866 -0.0071920678 0.085890017 0.0042602718 -0.0072101858 0.084887534 0.0081340857 0.0088350577 0.085792765 0.0032760301 0.0088026263 0.082545705 0.0039031438 -0.0078879735 0.08029069 0.009563203 -0.0071039717 0.081200875 0.0081340866 -0.0071920678 0.085890017 0.009563203 -0.0071039717 0.081200875 0.0039031438 -0.0078879735 0.08029069 0.009134951 0.0086985873 0.081454039 0.009563203 -0.0071039717 0.081200875 0.0081340857 0.0088350577 0.085792765 0.0081340866 -0.0071920678 0.085890017 0.0081340857 0.0088350577 0.085792765 0.009563203 -0.0071039717 0.081200875 0.009134951 0.0086985873 0.081454039 </float_array>
          <technique_common>
            <accessor count="30" offset="0" source="#meshId0-positions-array" stride="3">
              <param name="X" type="float" />
              <param name="Y" type="float" />
              <param name="Z" type="float" />
            </accessor>
          </technique_common>
        </source>
        <vertices id="meshId0-vertices">
          <input semantic="POSITION" source="#meshId0-positions" />
        </vertices>
        <polylist count="10" material="defaultMaterial">
          <input offset="0" semantic="VERTEX" source="#meshId0-vertices" />
          <vcount>3 3 3 3 3 3 3 3 3 3 </vcount>
          <p>0 1 2 3 4 5 6 7 8 9 10 11 12 13 14 15 16 17 18 19 20 21 22 23 24 25 26 27 28 29 </p>
        </polylist>
      </mesh>
    </geometry>
  </library_geometries>
  <library_controllers>
  </library_controllers>
  <library_visual_scenes>
    <visual_scene id="Scene" name="Scene">
      <node id="Node_0x7fe6917b6bb0"  name="Node_0x7fe6917b6bb0" type="NODE">
        <matrix sid="matrix">1 0 0 0 0 1 0 0 0 0 1 0 0 0 0 1</matrix>
        <instance_geometry url="#meshId0">
          <bind_material>
            <technique_common>
              <instance_material symbol="defaultMaterial" target="#m0mat">
              </instance_material>
            </technique_common>
          </bind_material>
        </instance_geometry>
      </node>
    </visual_scene>
  </library_visual_scenes>
  <scene>
    <instance_visual_scene url="#Scene" />
  </scene>
</COLLADA>
