# Blender 4.4.0
# www.blender.org
mtllib cookie.mtl
o Cylinder
v 0.003165 -0.000000 -0.917710
v 0.024343 0.418528 -0.655877
v 0.350987 -0.000000 -0.837310
v 0.329572 0.395124 -0.550549
v 0.666738 -0.000000 -0.669005
v 0.510560 0.383250 -0.427671
v 0.847919 -0.000000 -0.366858
v 0.625102 0.403176 -0.237749
v 0.898383 -0.000000 -0.004232
v 0.677943 0.406280 0.034618
v 0.826381 -0.000000 0.331136
v 0.617925 0.371315 0.301431
v 0.672082 -0.000000 0.639938
v 0.458121 0.352903 0.456715
v 0.377369 -0.000000 0.826635
v 0.267977 0.372965 0.547591
v 0.004628 -0.000000 0.921942
v 0.000953 0.404424 0.616965
v -0.379152 -0.000000 0.854145
v -0.290998 0.390379 0.599200
v -0.710977 -0.000000 0.669950
v -0.527028 0.367766 0.503350
v -0.879569 -0.000000 0.357363
v -0.637064 0.379697 0.242627
v -0.958855 -0.000000 -0.000000
v -0.625665 0.399528 -0.032729
v -0.869420 -0.000000 -0.355745
v -0.586485 0.389197 -0.299602
v -0.695605 -0.000000 -0.673690
v -0.470873 0.375598 -0.521123
v -0.364706 -0.000000 -0.850294
v -0.256330 0.402682 -0.628134
v -0.000925 0.166686 -0.986209
v 0.005529 0.326899 -0.903655
v 0.340509 0.315846 -0.784461
v 0.364307 0.180064 -0.875361
v 0.651172 0.303119 -0.586938
v 0.673414 0.178118 -0.691414
v 0.857222 0.329719 -0.350153
v 0.917116 0.166706 -0.379995
v 0.927518 0.325409 -0.007891
v 0.975211 0.166917 -0.000501
v 0.832958 0.296031 0.375142
v 0.878473 0.161657 0.362932
v 0.631424 0.270693 0.630110
v 0.675927 0.160638 0.673219
v 0.343110 0.286686 0.794655
v 0.372016 0.146420 0.889456
v -0.003425 0.316019 0.847837
v 0.002209 0.160055 0.979298
v -0.361518 0.310214 0.843699
v -0.369961 0.165859 0.909325
v -0.669327 0.280760 0.632839
v -0.718933 0.164274 0.679033
v -0.830510 0.276342 0.313959
v -0.915188 0.170305 0.370886
v -0.876284 0.313096 -0.020803
v -0.990298 0.166034 -0.002244
v -0.806301 0.325630 -0.379998
v -0.904059 0.174306 -0.368363
v -0.640586 0.294036 -0.669730
v -0.726721 0.184241 -0.720827
v -0.354866 0.302618 -0.844041
v -0.379060 0.176268 -0.909872
v 0.021947 0.398123 0.001920
v 0.021855 0.373487 -0.387042
v 0.317039 0.382034 -0.267449
v 0.397430 0.356771 -0.000951
v -0.293728 0.368022 -0.296387
v -0.349901 0.379131 -0.004509
v -0.289971 0.372008 0.288860
v 0.006105 0.365067 0.362252
v 0.306479 0.347792 0.270823
v -0.000000 -0.000000 0.000000
v 0.382683 -0.000000 0.000000
v 0.382683 -0.000000 -0.382684
v -0.000000 -0.000000 -0.382684
v -0.000000 -0.000000 0.382683
v 0.382683 -0.000000 0.382683
v -0.382683 -0.000000 0.382683
v -0.382683 -0.000000 -0.000000
v -0.382683 -0.000000 -0.382684
vn 0.0270 -0.7805 -0.6246
vn 0.0202 0.9889 -0.1470
vn 0.2480 -0.7611 -0.5993
vn 0.1080 0.9844 -0.1390
vn 0.4637 -0.7287 -0.5040
vn 0.1197 0.9795 -0.1621
vn 0.5787 -0.7795 -0.2396
vn 0.0996 0.9929 -0.0650
vn 0.5895 -0.8074 0.0265
vn 0.1145 0.9914 0.0631
vn 0.5703 -0.7901 0.2245
vn 0.1142 0.9826 0.1463
vn 0.4984 -0.7438 0.4454
vn 0.1126 0.9834 0.1422
vn 0.2684 -0.7779 0.5681
vn 0.1140 0.9868 0.1149
vn 0.0183 -0.7837 0.6209
vn 0.0478 0.9903 0.1308
vn -0.2463 -0.7560 0.6064
vn -0.0812 0.9865 0.1423
vn -0.5037 -0.7084 0.4944
vn -0.2111 0.9661 0.1486
vn -0.6280 -0.7390 0.2439
vn -0.2155 0.9718 0.0959
vn -0.6815 -0.7317 -0.0098
vn -0.1461 0.9891 0.0162
vn -0.6122 -0.7557 -0.2326
vn -0.1287 0.9891 -0.0720
vn -0.4772 -0.7493 -0.4592
vn -0.1431 0.9797 -0.1406
vn -0.2107 -0.7898 -0.5760
vn -0.0962 0.9851 -0.1424
vn 0.0401 0.0788 -0.9961
vn 0.0435 0.7408 -0.6703
vn 0.2928 0.7656 -0.5729
vn 0.3916 0.1688 -0.9045
vn 0.4439 0.7506 -0.4895
vn 0.6425 0.1762 -0.7457
vn 0.6220 0.7223 -0.3024
vn 0.9204 0.0360 -0.3894
vn 0.7257 0.6868 0.0420
vn 0.9980 -0.0399 0.0480
vn 0.6382 0.6777 0.3653
vn 0.9194 0.0039 0.3932
vn 0.4653 0.7203 0.5144
vn 0.7031 0.1020 0.7037
vn 0.2734 0.7775 0.5664
vn 0.3869 0.1324 0.9126
vn 0.0559 0.7977 0.6004
vn 0.0419 0.1322 0.9903
vn -0.2522 0.7423 0.6208
vn -0.3377 0.1348 0.9316
vn -0.5098 0.7323 0.4514
vn -0.7081 0.1862 0.6811
vn -0.5923 0.7751 0.2197
vn -0.9037 0.2385 0.3557
vn -0.6081 0.7938 0.0071
vn -0.9778 0.2096 -0.0036
vn -0.5589 0.7960 -0.2326
vn -0.9242 0.1864 -0.3332
vn -0.4441 0.7660 -0.4647
vn -0.7079 0.1536 -0.6894
vn -0.2517 0.7430 -0.6201
vn -0.3394 0.0976 -0.9356
vn 0.0208 0.9995 0.0217
vn -0.0066 0.9983 0.0587
vn -0.0131 0.9995 0.0295
vn -0.0465 0.9976 0.0510
vn -0.0002 0.9999 0.0106
vn 0.0166 0.9998 0.0075
vn -0.0061 1.0000 0.0055
vn 0.0306 0.9990 -0.0340
vn 0.0139 0.9998 0.0124
vn -0.0000 -1.0000 -0.0000
vt 0.183469 0.499749
vt 0.273261 0.499746
vt 0.283514 0.623450
vt 0.201160 0.621774
vt 0.297104 0.702712
vt 0.261131 0.738898
vt 0.376177 0.715715
vt 0.377974 0.797864
vt 0.499903 0.726169
vt 0.499904 0.816024
vt 0.623346 0.716672
vt 0.621652 0.799018
vt 0.702818 0.702712
vt 0.738881 0.738898
vt 0.716053 0.623462
vt 0.798400 0.621774
vt 0.726613 0.499746
vt 0.816409 0.499749
vt 0.716309 0.376212
vt 0.798281 0.378083
vt 0.702818 0.296998
vt 0.738881 0.261148
vt 0.623484 0.284078
vt 0.621646 0.201824
vt 0.500010 0.272821
vt 0.499904 0.182974
vt 0.376297 0.283185
vt 0.377993 0.201096
vt 0.297104 0.296998
vt 0.261131 0.261148
vt 0.372534 0.627061
vt 0.283744 0.376206
vt 0.201796 0.378085
vt 0.245055 -0.000000
vt 0.100055 -0.000000
vt 0.100055 -0.100000
vt 0.225055 -0.100000
vt 0.050298 0.378114
vt 0.119669 0.378114
vt 0.096192 0.500909
vt 0.022542 0.500909
vt 0.189640 0.378114
vt 0.170479 0.500909
vt 0.139737 0.262920
vt 0.195319 0.262920
vt 0.251381 0.262920
vt 0.378183 0.050683
vt 0.378183 0.120097
vt 0.262258 0.195981
vt 0.262258 0.140399
vt 0.378183 0.190111
vt 0.262258 0.252043
vt 0.500247 0.023204
vt 0.500247 0.096854
vt 0.500247 0.171142
vt 0.621766 0.050477
vt 0.621766 0.119923
vt 0.621766 0.189969
vt 0.738236 0.140399
vt 0.738236 0.195981
vt 0.738236 0.252043
vt 0.950195 0.378114
vt 0.880824 0.378114
vt 0.805175 0.262920
vt 0.860756 0.262920
vt 0.810853 0.378114
vt 0.749112 0.262920
vt 0.977951 0.500909
vt 0.904301 0.500909
vt 0.830014 0.500909
vt 0.950953 0.621695
vt 0.881465 0.621695
vt 0.811377 0.621695
vt 0.860756 0.738898
vt 0.805175 0.738898
vt 0.749112 0.738898
vt 0.621766 0.951341
vt 0.621766 0.881895
vt 0.738236 0.805837
vt 0.738236 0.861418
vt 0.621766 0.811849
vt 0.738236 0.749774
vt 0.500247 0.978614
vt 0.500247 0.904964
vt 0.500247 0.830676
vt 0.378183 0.951135
vt 0.378183 0.881721
vt 0.378183 0.811707
vt 0.262258 0.861418
vt 0.262258 0.805837
vt 0.262258 0.749774
vt 0.049540 0.621695
vt 0.119028 0.621695
vt 0.195319 0.738898
vt 0.139737 0.738898
vt 0.189117 0.621695
vt 0.251381 0.738898
vt 0.630257 0.499742
vt 0.627402 0.372548
vt 0.500343 0.369284
vt 0.372946 0.372529
vt 0.499902 0.629342
vt 0.626983 0.627074
vt 0.370275 0.499742
vt 0.499902 0.499742
vt -0.244945 -0.000000
vt -0.099945 -0.000000
vt -0.099945 0.100000
vt -0.224945 0.100000
vt -0.099945 0.225000
vt -0.179945 0.180000
vt -0.001706 0.245000
vt 0.000055 0.100000
vt 0.100055 0.100000
vt 0.100055 0.225000
vt 0.000055 -0.245000
vt 0.000055 -0.100000
vt -0.099945 -0.100000
vt -0.099945 -0.225000
vt 0.000055 -0.000000
vt 0.225055 0.100000
vt 0.180055 0.180000
vt 0.100055 -0.225000
vt -0.224945 -0.100000
vt -0.179945 -0.180000
vt 0.180055 -0.180000
s 1
usemtl Material.001
f 34/1/34 2/2/2 4/3/4 35/4/35
f 35/4/35 4/3/4 6/5/6 37/6/37
f 37/6/37 6/5/6 8/7/8 39/8/39
f 39/8/39 8/7/8 10/9/10 41/10/41
f 41/10/41 10/9/10 12/11/12 43/12/43
f 43/12/43 12/11/12 14/13/14 45/14/45
f 45/14/45 14/13/14 16/15/16 47/16/47
f 47/16/47 16/15/16 18/17/18 49/18/49
f 49/18/49 18/17/18 20/19/20 51/20/51
f 51/20/51 20/19/20 22/21/22 53/22/53
f 53/22/53 22/21/22 24/23/24 55/24/55
f 55/24/55 24/23/24 26/25/26 57/26/57
f 57/26/57 26/25/26 28/27/28 59/28/59
f 59/28/59 28/27/28 30/29/30 61/30/61
f 4/3/4 67/31/67 8/7/8 6/5/6
f 61/30/61 30/29/30 32/32/32 63/33/63
f 63/33/63 32/32/32 2/2/2 34/1/34
f 1/34/1 77/35/74 82/36/74 31/37/31
f 31/38/31 64/39/64 33/40/33 1/41/1
f 64/39/64 63/42/63 34/43/34 33/40/33
f 29/44/29 62/45/62 64/39/64 31/38/31
f 62/45/62 61/46/61 63/42/63 64/39/64
f 27/47/27 60/48/60 62/49/62 29/50/29
f 60/48/60 59/51/59 61/52/61 62/49/62
f 25/53/25 58/54/58 60/48/60 27/47/27
f 58/54/58 57/55/57 59/51/59 60/48/60
f 23/56/23 56/57/56 58/54/58 25/53/25
f 56/57/56 55/58/55 57/55/57 58/54/58
f 21/59/21 54/60/54 56/57/56 23/56/23
f 54/60/54 53/61/53 55/58/55 56/57/56
f 19/62/19 52/63/52 54/64/54 21/65/21
f 52/63/52 51/66/51 53/67/53 54/64/54
f 17/68/17 50/69/50 52/63/52 19/62/19
f 50/69/50 49/70/49 51/66/51 52/63/52
f 15/71/15 48/72/48 50/69/50 17/68/17
f 48/72/48 47/73/47 49/70/49 50/69/50
f 13/74/13 46/75/46 48/72/48 15/71/15
f 46/75/46 45/76/45 47/73/47 48/72/48
f 11/77/11 44/78/44 46/79/46 13/80/13
f 44/78/44 43/81/43 45/82/45 46/79/46
f 9/83/9 42/84/42 44/78/44 11/77/11
f 42/84/42 41/85/41 43/81/43 44/78/44
f 7/86/7 40/87/40 42/84/42 9/83/9
f 40/87/40 39/88/39 41/85/41 42/84/42
f 5/89/5 38/90/38 40/87/40 7/86/7
f 38/90/38 37/91/37 39/88/39 40/87/40
f 3/92/3 36/93/36 38/94/38 5/95/5
f 36/93/36 35/96/35 37/97/37 38/94/38
f 1/41/1 33/40/33 36/93/36 3/92/3
f 33/40/33 34/43/34 35/96/35 36/93/36
f 18/17/18 72/98/72 71/99/71 20/19/20
f 26/25/26 70/100/70 69/101/69 28/27/28
f 10/9/10 68/102/68 73/103/73 12/11/12
f 8/7/8 67/31/67 68/102/68 10/9/10
f 28/27/28 69/101/69 32/32/32 30/29/30
f 67/31/67 4/3/4 2/2/2 66/104/66
f 16/15/16 73/103/73 72/98/72 18/17/18
f 68/102/68 67/31/67 66/104/66 65/105/65
f 20/19/20 71/99/71 24/23/24 22/21/22
f 32/32/32 69/101/69 66/104/66 2/2/2
f 69/101/69 70/100/70 65/105/65 66/104/66
f 71/99/71 72/98/72 65/105/65 70/100/70
f 24/23/24 71/99/71 70/100/70 26/25/26
f 12/11/12 73/103/73 16/15/16 14/13/14
f 72/98/72 73/103/73 68/102/68 65/105/65
f 17/106/17 78/107/74 79/108/74 15/109/15
f 15/109/15 79/108/74 11/110/11 13/111/13
f 9/112/9 75/113/74 76/114/74 7/115/7
f 25/116/25 81/117/74 80/118/74 23/119/23
f 75/113/74 74/120/74 77/35/74 76/114/74
f 76/114/74 77/35/74 1/34/1 3/121/3
f 7/115/7 76/114/74 3/121/3 5/122/5
f 27/123/27 82/36/74 81/117/74 25/116/25
f 23/119/23 80/118/74 19/124/19 21/125/21
f 11/110/11 79/108/74 75/113/74 9/112/9
f 79/108/74 78/107/74 74/120/74 75/113/74
f 80/118/74 81/117/74 74/120/74 78/107/74
f 81/117/74 82/36/74 77/35/74 74/120/74
f 19/124/19 80/118/74 78/107/74 17/106/17
f 31/37/31 82/36/74 27/123/27 29/126/29
